PathFileType	3	(X/Y/Z)	D:\minhoCalibration\240510\subject1_KPNP\preferred\preferred07.trc
DataRate	CameraRate	NumFrames	NumMarkers	Units	OrigDataRate	OrigDataStartFrame	OrigNumFrames
200.0	200.0	21	10	mm	200.0	480	252	
Frame#	Time	Left_Ankle_Outer1			Left_Ankle_Inner1			Left_Knee_Outer1			Left_Knee_Inner1			Left_Wrist1			Right_Wrist1			Right_Knee_Inner1			Right_Knee_Outer1			Right_Ankle_Inner1			Right_Ankle_Outer1			
		X1	Y1	Z1	X2	Y2	Z2	X3	Y3	Z3	X4	Y4	Z4	X5	Y5	Z5	X6	Y6	Z6	X7	Y7	Z7	X8	Y8	Z8	X9	Y9	Z9	X10	Y10	Z10	
480	2.39	-520.76758	152.13383	-552.93323	-560.63879	159.91826	-512.73615	-358.39468	559.37689	-418.60986	-456.3959	540.97803	-373.45697	-390.67526	985.61804	-630.60077	-610.13806	1191.4943	-419.81604	-318.52179	1003.2949	-97.220001	-378.08545	1096.7781	-79.683434	-399.54727	915.34888	335.13171	-410.59949	1017.0766	371.86966
481	2.395	-521.34906	152.39545	-552.45325	-561.17767	159.92758	-511.98209	-358.50049	559.67792	-418.34784	-456.34961	540.95441	-373.35385	-388.78171	986.78607	-628.19446	-612.18402	1189.5433	-418.34662	-322.522	996.6189	-95.441475	-379.30054	1090.4911	-76.358551	-403.29788	898.63202	333.23404	-416.65186	1000.4208	371.96838
482	2.4	-521.73688	152.62062	-552.1391	-561.51434	160.02827	-511.57773	-358.75937	559.78699	-418.35904	-456.32953	541.08063	-373.13275	-387.05142	988.44043	-625.32526	-614.42975	1187.3961	-417.0975	-326.49973	990.17883	-93.875999	-381.38522	1084.1764	-73.35849	-410.05008	883.22845	331.72253	-423.35538	983.31	372.30746
483	2.405	-522.05493	152.59221	-552.06409	-561.8894	160.00163	-511.5242	-359.13425	559.62823	-418.53287	-456.8013	540.8999	-372.92804	-385.14178	989.91125	-622.68945	-616.58539	1184.6753	-415.84436	-330.57196	983.96069	-92.61322	-384.73987	1077.9114	-70.520638	-414.36646	866.62537	328.79889	-430.24579	965.71881	372.43729
484	2.41	-522.41241	152.37846	-552.13727	-562.20227	159.71822	-511.82944	-359.54697	559.22491	-418.79001	-456.73325	540.63409	-373.46515	-382.70251	991.37469	-620.40265	-619.16425	1182.5021	-414.6842	-334.52814	977.81024	-91.792061	-388.92261	1071.5476	-68.011345	-419.51608	850.11884	324.80872	-437.35324	947.20349	371.93436
485	2.415	-522.50159	152.09074	-552.50293	-562.35785	159.41794	-512.21631	-360.46289	558.66364	-418.9938	-457.35358	540.086	-373.80154	-381.17578	992.80365	-617.29797	-621.77826	1180.2939	-413.77832	-338.56299	971.77338	-91.142555	-393.84171	1065.1583	-65.546806	-424.6058	832.58075	321.92688	-444.44705	928.36096	371.00879
486	2.42	-522.62115	151.53799	-552.95288	-562.63153	158.87343	-512.83777	-360.77112	558.21631	-419.50284	-457.57666	539.98816	-374.19839	-379.11508	994.14606	-615.08563	-624.59973	1178.7294	-412.22165	-342.21011	966.00195	-90.859474	-399.04938	1058.5359	-63.327194	-430.52985	815.79608	317.298	-451.99435	908.86932	369.48633
487	2.425	-522.62683	150.94145	-553.57007	-562.76025	158.27487	-513.62531	-361.25668	557.72235	-419.97641	-458.5643	539.22571	-375.00461	-377.56284	995.44342	-612.67651	-627.06213	1176.4739	-411.60019	-345.67551	960.50177	-90.744843	-404.73801	1051.7213	-61.106117	-436.5101	797.62665	312.85349	-459.63382	888.84827	367.08282
488	2.43	-522.74298	149.9408	-553.90723	-562.62317	157.25897	-513.97797	-361.65155	557.06909	-420.51389	-459.44476	538.26935	-376.05884	-375.99112	996.57458	-610.74805	-629.54584	1174.5098	-410.51843	-349.07632	955.28058	-90.66227	-410.75845	1044.7589	-59.076584	-442.7681	779.4527	307.47528	-467.73926	868.45892	364.13644
489	2.435	-522.46765	149.21683	-555.02167	-562.99902	156.86528	-515.92126	-361.98584	556.51306	-421.11011	-460.11044	537.59808	-377.28775	-374.57809	997.59076	-608.91876	-631.91333	1171.7405	-410.28818	-352.20935	950.30927	-90.737068	-416.92322	1037.5088	-57.234695	-448.64865	760.7226	300.7186	-475.97537	847.31024	360.08823
490	2.44	-522.26691	148.48129	-555.91431	-562.8913	156.06221	-516.90179	-362.29343	555.76135	-421.72015	-461.1875	536.90302	-378.75897	-373.20972	998.48425	-607.15283	-634.034	1169.1145	-409.64511	-355.17303	945.67145	-90.803795	-423.19922	1029.9928	-55.622147	-455.73215	741.65204	293.77258	-484.75604	825.85773	355.38934
491	2.445	-522.07886	147.55412	-556.81073	-563.36145	155.33391	-518.66223	-362.26581	555.22119	-422.43723	-462.25745	536.03857	-379.85086	-371.57907	999.26654	-605.71741	-635.66949	1165.9417	-409.57675	-358.04388	941.15271	-90.739792	-429.5448	1022.2533	-54.176971	-463.28683	722.02747	286.12454	-494.09363	804.08807	349.70566
492	2.45	-522.09833	146.44377	-557.35968	-562.90338	154.77397	-519.64954	-362.44455	554.48126	-423.04077	-463.04538	535.15955	-381.21423	-370.60342	999.79541	-603.70166	-637.49933	1162.941	-408.73917	-360.68491	936.63318	-90.583755	-435.94794	1014.2584	-52.897167	-469.65039	703.0495	277.09451	-503.69287	781.70972	343.03137
493	2.455	-521.69019	145.68515	-558.5722	-562.53809	153.43127	-519.80945	-362.63657	553.58997	-423.65961	-463.46686	534.39423	-382.58298	-369.33643	1000.2502	-601.90906	-638.6535	1159.3167	-409.11203	-363.14838	931.92334	-90.253601	-442.32812	1006.1153	-51.649113	-476.58032	683.51117	267.25366	-513.72888	758.91516	335.25687
494	2.46	-521.53735	144.83142	-559.42865	-562.36853	152.64737	-520.96338	-362.64868	552.8302	-424.17706	-464.02469	533.50085	-383.84659	-368.1669	1000.5945	-600.04645	-640.59979	1156.0042	-408.28683	-365.6889	926.92267	-89.68985	-448.37363	997.51904	-50.750488	-483.70682	664.34198	256.77234	-523.68781	736.22925	326.23563
495	2.465	-521.51611	143.96222	-560.26691	-562.52063	151.65794	-521.95856	-362.59906	552.04565	-424.70428	-464.46194	532.68396	-384.84103	-366.96124	1000.8218	-598.21283	-641.73511	1152.0216	-408.94232	-368.42389	921.52655	-89.04216	-454.33258	988.84576	-49.859509	-490.31488	644.72858	244.83945	-533.8526	713.45441	316.10748
496	2.47	-521.71124	142.91367	-560.53186	-562.68304	150.85629	-522.8717	-362.45657	551.15656	-425.21213	-464.98676	531.89862	-385.50623	-365.7673	1001.0227	-596.3371	-643.12286	1148.6556	-408.92886	-371.23444	915.80621	-88.546974	-460.26654	980.05487	-48.947334	-497.78171	625.07446	232.59802	-544.35828	690.53644	304.7225
497	2.475	-521.79553	142.17456	-561.19427	-562.64032	150.53117	-523.61694	-362.11093	550.32758	-425.68045	-465.13223	530.95465	-386.14151	-364.52826	1001.09	-594.52393	-645.07843	1145.2905	-408.44714	-374.40799	909.82581	-88.042206	-465.80496	970.99213	-48.286446	-504.80533	605.31329	219.28792	-554.95142	667.67908	292.289
498	2.48	-522.00433	141.53059	-561.71875	-562.91742	149.91853	-524.24524	-361.77441	549.34064	-426.01187	-464.60489	530.07117	-386.95071	-363.33572	1001.0428	-592.73694	-646.12811	1141.2888	-409.34851	-377.60718	903.67639	-87.80394	-471.16833	961.73267	-47.861794	-512.55591	587.01312	205.84259	-565.55109	645.14392	278.77313
499	2.485	-522.07385	141.14401	-562.58356	-563.02179	149.15459	-524.73181	-361.19736	548.45496	-426.29062	-464.25909	529.50665	-387.02536	-362.16235	1000.9857	-590.96429	-647.31653	1137.8486	-409.80472	-381.1156	897.38702	-87.675484	-476.539	952.10931	-47.693501	-519.50708	567.80713	190.98224	-575.98895	622.94031	264.40936
500	2.49	-522.49744	140.5379	-563.01404	-563.53186	148.65742	-525.16125	-360.50388	547.55566	-426.43155	-463.64047	528.41016	-387.31097	-361.00833	1000.9423	-589.13831	-649.31104	1134.3691	-409.33051	-384.6366	891.06647	-87.685837	-481.91608	942.3559	-47.76231	-526.41241	548.73047	174.77571	-586.27502	600.80005	248.4704
